<svg width="84" height="28" viewBox="0 0 84 28" fill="none" xmlns="http://www.w3.org/2000/svg">
<mask id="mask0_1142_1281" style="mask-type:luminance" maskUnits="userSpaceOnUse" x="0" y="0" width="27" height="28">
<path d="M24.4857 0.983377L0 3.11621L2.18422 27.0166L26.67 24.8838L24.4857 0.983377Z" fill="white"/>
</mask>
<g mask="url(#mask0_1142_1281)">
<path d="M17.0881 15.6807L16.2821 15.7509L15.9718 15.5069C16.8679 14.2845 17.3352 12.7582 17.1886 11.1549C16.8619 7.5798 13.6282 4.94048 9.96554 5.25952C6.30288 5.57855 3.59882 8.73508 3.92554 12.3102C4.25227 15.8853 7.486 18.5246 11.1487 18.2056C12.7912 18.0625 14.2475 17.3434 15.3214 16.2662L15.6223 16.521L15.6942 17.3077L21.2496 21.8327L22.6341 20.2165L17.0881 15.6807ZM10.9666 16.2139C8.42624 16.4351 6.19263 14.6121 5.96602 12.1324C5.73941 9.65278 7.60716 7.4725 10.1476 7.25122C12.6879 7.02993 14.9216 8.85297 15.1482 11.3326C15.3748 13.8123 13.507 15.9926 10.9666 16.2139Z" fill="#A9A9A9"/>
</g>
<path d="M43.4711 11.8636C43.4114 11.3598 43.1694 10.9688 42.7452 10.6903C42.321 10.4119 41.8006 10.2727 41.1841 10.2727C40.7334 10.2727 40.339 10.3456 40.0009 10.4915C39.6661 10.6373 39.4043 10.8378 39.2154 11.093C39.0298 11.3482 38.937 11.6383 38.937 11.9631C38.937 12.2348 39.0016 12.4685 39.1309 12.6641C39.2634 12.8563 39.4325 13.017 39.638 13.1463C39.8435 13.2723 40.0589 13.3767 40.2843 13.4595C40.5096 13.5391 40.7168 13.6037 40.9057 13.6534L41.9398 13.9318C42.205 14.0014 42.4999 14.0975 42.8248 14.2202C43.1529 14.3428 43.4661 14.5102 43.7644 14.7223C44.066 14.9311 44.3146 15.1996 44.5101 15.5277C44.7057 15.8558 44.8034 16.2585 44.8034 16.7358C44.8034 17.286 44.6593 17.7831 44.3709 18.2273C44.0859 18.6714 43.6683 19.0244 43.1181 19.2862C42.5712 19.5481 41.9067 19.679 41.1245 19.679C40.3953 19.679 39.7639 19.5613 39.2303 19.326C38.7 19.0907 38.2824 18.7625 37.9775 18.3416C37.6758 17.9207 37.5051 17.4318 37.4654 16.875H38.7381C38.7712 17.2595 38.9005 17.5777 39.1259 17.8295C39.3546 18.0781 39.6429 18.2637 39.9909 18.3864C40.3423 18.5057 40.7201 18.5653 41.1245 18.5653C41.5951 18.5653 42.0177 18.4891 42.3922 18.3366C42.7667 18.1809 43.0634 17.9654 43.2821 17.6903C43.5009 17.4119 43.6103 17.0871 43.6103 16.7159C43.6103 16.3778 43.5158 16.1027 43.3269 15.8906C43.138 15.6785 42.8894 15.5062 42.5811 15.3736C42.2729 15.241 41.9398 15.125 41.5819 15.0256L40.329 14.6676C39.5336 14.4389 38.9038 14.1125 38.4398 13.6882C37.9758 13.264 37.7438 12.7088 37.7438 12.0227C37.7438 11.4527 37.8979 10.9555 38.2061 10.5312C38.5177 10.1037 38.9353 9.77225 39.459 9.53693C39.986 9.2983 40.5743 9.17898 41.2239 9.17898C41.8801 9.17898 42.4635 9.29664 42.9739 9.53196C43.4843 9.76397 43.8887 10.0821 44.187 10.4865C44.4886 10.8909 44.6477 11.3499 44.6642 11.8636H43.4711ZM49.8732 19.6591C49.1374 19.6591 48.5027 19.4967 47.9691 19.1719C47.4388 18.8438 47.0295 18.3864 46.7411 17.7997C46.4561 17.2098 46.3136 16.5237 46.3136 15.7415C46.3136 14.9593 46.4561 14.2699 46.7411 13.6733C47.0295 13.0734 47.4305 12.6061 47.9442 12.2713C48.4613 11.9332 49.0645 11.7642 49.7539 11.7642C50.1516 11.7642 50.5444 11.8305 50.9322 11.9631C51.32 12.0956 51.6729 12.3111 51.9911 12.6094C52.3093 12.9044 52.5629 13.2955 52.7518 13.7827C52.9407 14.2699 53.0352 14.8698 53.0352 15.5824V16.0795H47.1488V15.0653H51.842C51.842 14.6345 51.7558 14.25 51.5835 13.9119C51.4144 13.5739 51.1725 13.3071 50.8576 13.1115C50.546 12.916 50.1781 12.8182 49.7539 12.8182C49.2866 12.8182 48.8822 12.9342 48.5408 13.1662C48.2028 13.3949 47.9426 13.6932 47.7603 14.0611C47.578 14.429 47.4869 14.8234 47.4869 15.2443V15.9205C47.4869 16.4972 47.5863 16.986 47.7852 17.3871C47.9873 17.7848 48.2674 18.0881 48.6254 18.2969C48.9833 18.5024 49.3993 18.6051 49.8732 18.6051C50.1815 18.6051 50.4599 18.562 50.7085 18.4759C50.9603 18.3864 51.1774 18.2538 51.3597 18.0781C51.542 17.8991 51.6829 17.6771 51.7823 17.4119L52.9158 17.7301C52.7965 18.1146 52.596 18.4527 52.3143 18.7443C52.0326 19.0327 51.6845 19.258 51.2702 19.4205C50.8559 19.5795 50.3903 19.6591 49.8732 19.6591ZM57.0671 19.679C56.5832 19.679 56.1441 19.5878 55.7496 19.4055C55.3552 19.2199 55.042 18.9531 54.81 18.6051C54.578 18.2538 54.462 17.8295 54.462 17.3324C54.462 16.8949 54.5482 16.5402 54.7205 16.2685C54.8929 15.9934 55.1232 15.7779 55.4116 15.6222C55.6999 15.4664 56.0181 15.3504 56.3661 15.2741C56.7174 15.1946 57.0704 15.1316 57.4251 15.0852C57.8891 15.0256 58.2653 14.9808 58.5536 14.951C58.8453 14.9179 59.0574 14.8632 59.19 14.7869C59.3259 14.7107 59.3938 14.5781 59.3938 14.3892V14.3494C59.3938 13.8589 59.2596 13.4777 58.9911 13.206C58.726 12.9342 58.3233 12.7983 57.783 12.7983C57.2229 12.7983 56.7837 12.9209 56.4656 13.1662C56.1474 13.4115 55.9237 13.6733 55.7944 13.9517L54.6808 13.554C54.8796 13.09 55.1448 12.7287 55.4762 12.4702C55.811 12.2083 56.1755 12.026 56.57 11.9233C56.9677 11.8172 57.3588 11.7642 57.7433 11.7642C57.9885 11.7642 58.2702 11.794 58.5884 11.8537C58.9099 11.91 59.2198 12.0277 59.5181 12.2067C59.8197 12.3857 60.07 12.6558 60.2688 13.017C60.4677 13.3783 60.5671 13.8622 60.5671 14.4688V19.5H59.3938V18.4659H59.3342C59.2546 18.6316 59.122 18.8089 58.9364 18.9979C58.7508 19.1868 58.5039 19.3475 58.1957 19.4801C57.8874 19.6127 57.5112 19.679 57.0671 19.679ZM57.2461 18.625C57.7101 18.625 58.1012 18.5339 58.4194 18.3516C58.7409 18.1693 58.9828 17.9339 59.1452 17.6456C59.311 17.3572 59.3938 17.054 59.3938 16.7358V15.6619C59.3441 15.7216 59.2347 15.7763 59.0657 15.826C58.9 15.8724 58.7077 15.9138 58.489 15.9503C58.2736 15.9834 58.0631 16.0133 57.8576 16.0398C57.6554 16.063 57.4914 16.0829 57.3654 16.0994C57.0605 16.1392 56.7754 16.2038 56.5103 16.2933C56.2485 16.3795 56.0363 16.5104 55.8739 16.6861C55.7148 16.8584 55.6353 17.0937 55.6353 17.392C55.6353 17.7997 55.7861 18.108 56.0877 18.3168C56.3926 18.5223 56.7788 18.625 57.2461 18.625ZM62.7086 19.5V11.8636H63.8422V13.017H63.9217C64.0609 12.6392 64.3128 12.3326 64.6774 12.0973C65.042 11.862 65.4529 11.7443 65.9103 11.7443C65.9965 11.7443 66.1042 11.746 66.2335 11.7493C66.3627 11.7526 66.4605 11.7576 66.5268 11.7642V12.9574C66.487 12.9474 66.3959 12.9325 66.2534 12.9126C66.1142 12.8894 65.9667 12.8778 65.8109 12.8778C65.4397 12.8778 65.1083 12.9557 64.8166 13.1115C64.5282 13.264 64.2995 13.4761 64.1305 13.7479C63.9648 14.0163 63.8819 14.3229 63.8819 14.6676V19.5H62.7086ZM70.7875 19.6591C70.0716 19.6591 69.4551 19.4901 68.938 19.152C68.421 18.8139 68.0233 18.3482 67.7449 17.755C67.4664 17.1617 67.3272 16.4839 67.3272 15.7216C67.3272 14.946 67.4698 14.2616 67.7548 13.6683C68.0431 13.0717 68.4442 12.6061 68.9579 12.2713C69.475 11.9332 70.0782 11.7642 70.7676 11.7642C71.3045 11.7642 71.7884 11.8636 72.2193 12.0625C72.6502 12.2614 73.0031 12.5398 73.2782 12.8977C73.5533 13.2557 73.724 13.6733 73.7903 14.1506H72.617C72.5275 13.8026 72.3287 13.4943 72.0204 13.2259C71.7155 12.9541 71.3045 12.8182 70.7875 12.8182C70.3301 12.8182 69.929 12.9375 69.5843 13.1761C69.243 13.4115 68.9761 13.7446 68.7839 14.1754C68.595 14.603 68.5005 15.1051 68.5005 15.6818C68.5005 16.2718 68.5933 16.7855 68.7789 17.223C68.9679 17.6605 69.233 18.0002 69.5744 18.2422C69.9191 18.4841 70.3234 18.6051 70.7875 18.6051C71.0924 18.6051 71.3691 18.5521 71.6177 18.446C71.8663 18.34 72.0768 18.1875 72.2491 17.9886C72.4215 17.7898 72.5441 17.5511 72.617 17.2727H73.7903C73.724 17.7235 73.56 18.1295 73.2981 18.4908C73.0396 18.8487 72.6966 19.1338 72.269 19.3459C71.8448 19.5547 71.3509 19.6591 70.7875 19.6591ZM76.6788 14.9062V19.5H75.5055V9.31818H76.6788V13.0568H76.7782C76.9572 12.6624 77.2257 12.3492 77.5836 12.1172C77.9449 11.8819 78.4255 11.7642 79.0254 11.7642C79.5458 11.7642 80.0015 11.8686 80.3926 12.0774C80.7837 12.2829 81.0869 12.5994 81.3024 13.027C81.5211 13.4512 81.6305 13.9915 81.6305 14.6477V19.5H80.4572V14.7273C80.4572 14.1207 80.2998 13.6518 79.9849 13.3203C79.6734 12.9856 79.2408 12.8182 78.6873 12.8182C78.3029 12.8182 77.9582 12.8994 77.6532 13.0618C77.3516 13.2242 77.113 13.4612 76.9373 13.7727C76.765 14.0843 76.6788 14.4621 76.6788 14.9062Z" fill="white"/>
</svg>
