<svg width="24" height="25" viewBox="0 0 24 25" fill="none" xmlns="http://www.w3.org/2000/svg">
<path d="M10.2676 21.5C10.4431 21.804 10.6956 22.0565 10.9996 22.232C11.3037 22.4075 11.6485 22.4999 11.9996 22.4999C12.3506 22.4999 12.6955 22.4075 12.9995 22.232C13.3036 22.0565 13.556 21.804 13.7316 21.5" stroke="#333333" stroke-width="2" stroke-linecap="round" stroke-linejoin="round"/>
<path d="M3.26225 15.826C3.13161 15.9692 3.0454 16.1472 3.0141 16.3385C2.9828 16.5298 3.00777 16.726 3.08595 16.9034C3.16414 17.0807 3.29218 17.2316 3.4545 17.3375C3.61682 17.4434 3.80642 17.4999 4.00025 17.5H20.0002C20.194 17.5001 20.3837 17.4438 20.5461 17.3381C20.7085 17.2324 20.8367 17.0817 20.9151 16.9045C20.9935 16.7273 21.0187 16.5311 20.9877 16.3398C20.9566 16.1485 20.8707 15.9703 20.7402 15.827C19.4102 14.456 18.0002 12.999 18.0002 8.5C18.0002 6.9087 17.3681 5.38258 16.2429 4.25736C15.1177 3.13214 13.5915 2.5 12.0002 2.5C10.4089 2.5 8.88282 3.13214 7.75761 4.25736C6.63239 5.38258 6.00025 6.9087 6.00025 8.5C6.00025 12.999 4.58925 14.456 3.26225 15.826Z" stroke="#333333" stroke-width="2" stroke-linecap="round" stroke-linejoin="round"/>
</svg>
