<svg width="40" height="40" viewBox="0 0 40 40" fill="none" xmlns="http://www.w3.org/2000/svg">
<path d="M16.9412 10.9967C16.5895 12.4634 16.0662 13.9334 14.9995 15C13.9329 16.0667 12.4645 16.59 10.9962 16.9417C8.6138 17.5122 6.52372 18.9375 5.12251 20.9469C3.7213 22.9564 3.10647 25.4103 3.39466 27.8431C3.68285 30.2758 4.85401 32.5182 6.68594 34.1447C8.51787 35.7711 10.8831 36.6686 13.3329 36.6667C26.2195 36.6667 36.6662 26.22 36.6662 13.3334C36.6681 10.8836 35.7706 8.51836 34.1442 6.68643C32.5177 4.8545 30.2754 3.68333 27.8426 3.39514C25.4098 3.10695 22.9559 3.72179 20.9465 5.123C18.937 6.5242 17.5118 8.61429 16.9412 10.9967Z" stroke="#B45032" stroke-width="2" stroke-linecap="round" stroke-linejoin="round"/>
<path d="M8.90137 17.6999C9.34077 18.6887 10.0142 19.5557 10.8636 20.226C11.713 20.8963 12.7128 21.3498 13.7767 21.5473C14.8405 21.7448 15.9365 21.6804 16.9699 21.3596C18.0032 21.0389 18.943 20.4714 19.7081 19.7062C20.4731 18.9411 21.0404 18.0012 21.361 16.9677C21.6815 15.9342 21.7457 14.8383 21.548 13.7745C21.3503 12.7107 20.8966 11.711 20.2262 10.8617C19.5557 10.0124 18.6886 9.33912 17.6997 8.8999" stroke="#B45032" stroke-width="2" stroke-linecap="round" stroke-linejoin="round"/>
</svg>
