<svg width="40" height="40" viewBox="0 0 40 40" fill="none" xmlns="http://www.w3.org/2000/svg">
<path d="M32.5 8.75002C30.7972 8.75 29.1095 9.06795 27.5234 9.68752C25.2859 5.04689 20.7656 2.74064 20.5594 2.63752C20.3857 2.55062 20.1942 2.50537 20 2.50537C19.8058 2.50537 19.6143 2.55062 19.4406 2.63752C19.2328 2.74064 14.7141 5.04689 12.4766 9.68752C10.8905 9.06795 9.20275 8.75 7.5 8.75002C7.16848 8.75002 6.85054 8.88171 6.61612 9.11613C6.3817 9.35055 6.25 9.6685 6.25 10V22.5C6.25 26.1467 7.69866 29.6441 10.2773 32.2227C12.8559 34.8014 16.3533 36.25 20 36.25C23.6467 36.25 27.1441 34.8014 29.7227 32.2227C32.3013 29.6441 33.75 26.1467 33.75 22.5V10C33.75 9.6685 33.6183 9.35055 33.3839 9.11613C33.1495 8.88171 32.8315 8.75002 32.5 8.75002ZM18.75 33.6813C16.0011 33.3705 13.4626 32.0591 11.6184 29.997C9.77421 27.935 8.75321 25.2665 8.75 22.5V20.0688C11.4989 20.3796 14.0374 21.6909 15.8816 23.753C17.7258 25.8151 18.7468 28.4836 18.75 31.25V33.6813ZM18.75 23.3531C17.6037 21.7193 16.1154 20.3545 14.3885 19.3538C12.6616 18.353 10.7376 17.7401 8.75 17.5578V11.3188C11.4989 11.6296 14.0374 12.9409 15.8816 15.003C17.7258 17.0651 18.7468 19.7336 18.75 22.5V23.3531ZM14.7109 10.7985C16.1516 7.79689 18.8375 5.90314 20 5.18908C21.1625 5.9047 23.8484 7.79845 25.2875 10.7985C22.9767 12.2286 21.1378 14.3071 20 16.775C18.8621 14.3067 17.0226 12.228 14.7109 10.7985ZM31.25 22.5C31.2468 25.2665 30.2258 27.935 28.3816 29.997C26.5374 32.0591 23.9989 33.3705 21.25 33.6813V31.25C21.2532 28.4836 22.2742 25.8151 24.1184 23.753C25.9626 21.6909 28.5011 20.3796 31.25 20.0688V22.5ZM31.25 17.5578C29.2624 17.7401 27.3384 18.353 25.6115 19.3538C23.8846 20.3545 22.3963 21.7193 21.25 23.3531V22.5C21.2532 19.7336 22.2742 17.0651 24.1184 15.003C25.9626 12.9409 28.5011 11.6296 31.25 11.3188V17.5578Z" fill="#B45032"/>
</svg>
