<svg width="40" height="40" viewBox="0 0 40 40" fill="none" xmlns="http://www.w3.org/2000/svg">
<path d="M3.33301 36.6666L26.6663 13.3333" stroke="#03582C" stroke-width="2" stroke-linecap="round" stroke-linejoin="round"/>
<path d="M5.78344 20.8833L8.33345 18.3333L10.8834 20.8833C11.9724 21.9765 12.5839 23.4568 12.5839 24.9999C12.5839 26.543 11.9724 28.0233 10.8834 29.1166L8.33345 31.6666L5.78344 29.1166C4.69444 28.0233 4.08301 26.543 4.08301 24.9999C4.08301 23.4568 4.69444 21.9765 5.78344 20.8833Z" stroke="#03582C" stroke-width="2" stroke-linecap="round" stroke-linejoin="round"/>
<path d="M12.4504 14.2167L15.0004 11.6667L17.5504 14.2167C18.6394 15.31 19.2509 16.7903 19.2509 18.3334C19.2509 19.8765 18.6394 21.3568 17.5504 22.4501L15.0004 25.0001L12.4504 22.4501C11.3614 21.3568 10.75 19.8765 10.75 18.3334C10.75 16.7903 11.3614 15.31 12.4504 14.2167Z" stroke="#03582C" stroke-width="2" stroke-linecap="round" stroke-linejoin="round"/>
<path d="M19.1165 7.55L21.6665 5L24.2165 7.55C25.3055 8.6433 25.9169 10.1235 25.9169 11.6667C25.9169 13.2098 25.3055 14.69 24.2165 15.7833L21.6665 18.3333L19.1165 15.7833C18.0275 14.69 17.416 13.2098 17.416 11.6667C17.416 10.1235 18.0275 8.6433 19.1165 7.55Z" stroke="#03582C" stroke-width="2" stroke-linecap="round" stroke-linejoin="round"/>
<path d="M33.3337 3.33325H36.667V6.66659C36.667 8.4347 35.9646 10.1304 34.7144 11.3806C33.4641 12.6309 31.7684 13.3333 30.0003 13.3333H26.667V9.99992C26.667 8.23181 27.3694 6.53612 28.6196 5.28587C29.8699 4.03563 31.5655 3.33325 33.3337 3.33325Z" stroke="#03582C" stroke-width="2" stroke-linecap="round" stroke-linejoin="round"/>
<path d="M19.1163 29.1167L21.6663 31.6667L19.1163 34.2167C18.023 35.3057 16.5428 35.9171 14.9997 35.9171C13.4566 35.9171 11.9763 35.3057 10.883 34.2167L8.33301 31.6667L10.883 29.1167C11.9763 28.0277 13.4566 27.4163 14.9997 27.4163C16.5428 27.4163 18.023 28.0277 19.1163 29.1167Z" stroke="#03582C" stroke-width="2" stroke-linecap="round" stroke-linejoin="round"/>
<path d="M25.7833 22.4499L28.3333 24.9999L25.7833 27.55C24.69 28.639 23.2098 29.2504 21.6667 29.2504C20.1235 29.2504 18.6433 28.639 17.55 27.55L15 24.9999L17.55 22.4499C18.6433 21.3609 20.1235 20.7495 21.6667 20.7495C23.2098 20.7495 24.69 21.3609 25.7833 22.4499Z" stroke="#03582C" stroke-width="2" stroke-linecap="round" stroke-linejoin="round"/>
<path d="M32.4503 15.7834L35.0003 18.3334L32.4503 20.8834C31.357 21.9724 29.8768 22.5839 28.3337 22.5839C26.7905 22.5839 25.3103 21.9724 24.217 20.8834L21.667 18.3334L24.217 15.7834C25.3103 14.6944 26.7905 14.083 28.3337 14.083C29.8768 14.083 31.357 14.6944 32.4503 15.7834Z" stroke="#03582C" stroke-width="2" stroke-linecap="round" stroke-linejoin="round"/>
</svg>
